<svg width="165" height="41" viewBox="0 0 165 41" fill="none" xmlns="http://www.w3.org/2000/svg">
<g clip-path="url(#clip0_104_201)">
<path fill-rule="evenodd" clip-rule="evenodd" d="M6.5 1H158.5C161.8 1 164.5 3.7 164.5 7V35C164.5 38.3 161.8 41 158.5 41H6.5C3.2 41 0.5 38.3 0.5 35V7C0.5 3.7 3.2 1 6.5 1Z" fill="#BA50FF" stroke="#AA40EE"/>
<path d="M19.605 27.63L30.33 7.5H26.52L17.58 24.255L15.72 20.88L19.44 14.175H15.72L12 20.88L15.72 27.585H15.81L15.795 27.63H19.605Z" fill="white"/>
<path d="M32.13 14.265H32.04L32.055 14.22H28.245L17.52 34.35H21.33L30.27 17.595L32.13 20.97L28.41 27.675H32.13L35.85 20.97L32.13 14.265Z" fill="white"/>
<path d="M54.9631 20.9091C54.9631 21.9962 54.7642 22.9309 54.3665 23.7131C53.9688 24.492 53.4235 25.0919 52.7308 25.5128C52.0414 25.9304 51.2576 26.1392 50.3793 26.1392C49.4976 26.1392 48.7105 25.9304 48.0178 25.5128C47.3284 25.0919 46.7848 24.4903 46.3871 23.7081C45.9893 22.9259 45.7905 21.9929 45.7905 20.9091C45.7905 19.822 45.9893 18.889 46.3871 18.1101C46.7848 17.3279 47.3284 16.728 48.0178 16.3104C48.7105 15.8894 49.4976 15.679 50.3793 15.679C51.2576 15.679 52.0414 15.8894 52.7308 16.3104C53.4235 16.728 53.9688 17.3279 54.3665 18.1101C54.7642 18.889 54.9631 19.822 54.9631 20.9091ZM53.4418 20.9091C53.4418 20.0805 53.3075 19.3828 53.0391 18.8161C52.7739 18.246 52.4093 17.8151 51.9453 17.5234C51.4846 17.2285 50.9626 17.081 50.3793 17.081C49.7926 17.081 49.2689 17.2285 48.8082 17.5234C48.3475 17.8151 47.983 18.246 47.7145 18.8161C47.4493 19.3828 47.3168 20.0805 47.3168 20.9091C47.3168 21.7377 47.4493 22.437 47.7145 23.0071C47.983 23.5739 48.3475 24.0047 48.8082 24.2997C49.2689 24.5914 49.7926 24.7372 50.3793 24.7372C50.9626 24.7372 51.4846 24.5914 51.9453 24.2997C52.4093 24.0047 52.7739 23.5739 53.0391 23.0071C53.3075 22.437 53.4418 21.7377 53.4418 20.9091ZM56.7591 28.8636V18.3636H58.2108V19.6016H58.335C58.4212 19.4425 58.5455 19.2585 58.7079 19.0497C58.8703 18.8409 59.0957 18.6586 59.3841 18.5028C59.6724 18.3438 60.0536 18.2642 60.5275 18.2642C61.144 18.2642 61.6942 18.42 62.1781 18.7315C62.662 19.0431 63.0415 19.4922 63.3166 20.0788C63.595 20.6655 63.7342 21.3714 63.7342 22.1967C63.7342 23.022 63.5967 23.7296 63.3216 24.3196C63.0465 24.9062 62.6686 25.3587 62.188 25.6768C61.7074 25.9917 61.1589 26.1491 60.5424 26.1491C60.0784 26.1491 59.6989 26.0713 59.4039 25.9155C59.1123 25.7597 58.8836 25.5774 58.7179 25.3686C58.5521 25.1598 58.4245 24.9742 58.335 24.8118H58.2456V28.8636H56.7591ZM58.2157 22.1818C58.2157 22.7187 58.2936 23.1894 58.4494 23.5938C58.6052 23.9981 58.8306 24.3146 59.1255 24.5433C59.4205 24.7687 59.7818 24.8814 60.2093 24.8814C60.6535 24.8814 61.0247 24.7637 61.323 24.5284C61.6213 24.2898 61.8467 23.9666 61.9991 23.5589C62.1549 23.1513 62.2328 22.6922 62.2328 22.1818C62.2328 21.678 62.1565 21.2256 62.0041 20.8246C61.8549 20.4235 61.6296 20.107 61.3279 19.875C61.0297 19.643 60.6568 19.527 60.2093 19.527C59.7785 19.527 59.4139 19.638 59.1156 19.8601C58.8206 20.0821 58.5969 20.392 58.4444 20.7898C58.292 21.1875 58.2157 21.6515 58.2157 22.1818ZM68.6909 26.1541C67.9385 26.1541 67.2905 25.9934 66.747 25.6719C66.2067 25.3471 65.7891 24.8913 65.4941 24.3047C65.2025 23.7147 65.0566 23.0237 65.0566 22.2315C65.0566 21.4493 65.2025 20.7599 65.4941 20.1634C65.7891 19.5668 66.2001 19.1011 66.7271 18.7663C67.2574 18.4316 67.8772 18.2642 68.5865 18.2642C69.0173 18.2642 69.435 18.3355 69.8393 18.478C70.2437 18.6205 70.6066 18.8442 70.9281 19.1491C71.2496 19.4541 71.5031 19.8501 71.6887 20.3374C71.8743 20.8213 71.9672 21.4096 71.9672 22.1023V22.6293H65.8968V21.5156H70.5105C70.5105 21.1245 70.4309 20.7782 70.2718 20.4766C70.1127 20.1716 69.889 19.9313 69.6007 19.7557C69.3156 19.58 68.9809 19.4922 68.5964 19.4922C68.1788 19.4922 67.8142 19.5949 67.5027 19.8004C67.1944 20.0026 66.9558 20.2678 66.7868 20.5959C66.621 20.9207 66.5382 21.2737 66.5382 21.6548V22.5249C66.5382 23.0353 66.6277 23.4695 66.8066 23.8274C66.9889 24.1854 67.2425 24.4588 67.5673 24.6477C67.8921 24.8333 68.2716 24.9261 68.7058 24.9261C68.9875 24.9261 69.2444 24.8864 69.4764 24.8068C69.7084 24.724 69.9089 24.6013 70.0779 24.4389C70.247 24.2765 70.3762 24.076 70.4657 23.8374L71.8727 24.0909C71.76 24.5052 71.5578 24.8681 71.2662 25.1797C70.9778 25.4879 70.6149 25.7282 70.1774 25.9006C69.7432 26.0696 69.2477 26.1541 68.6909 26.1541ZM75.103 21.4659V26H73.6165V18.3636H75.0433V19.6065H75.1378C75.3134 19.2022 75.5885 18.8774 75.9631 18.6321C76.3409 18.3868 76.8165 18.2642 77.3899 18.2642C77.9103 18.2642 78.366 18.3736 78.7571 18.5923C79.1482 18.8078 79.4515 19.1293 79.6669 19.5568C79.8823 19.9844 79.9901 20.513 79.9901 21.1428V26H78.5036V21.3217C78.5036 20.7682 78.3594 20.3357 78.071 20.0241C77.7827 19.7093 77.3866 19.5518 76.8828 19.5518C76.5381 19.5518 76.2315 19.6264 75.9631 19.7756C75.6979 19.9247 75.4875 20.1435 75.3317 20.4318C75.1792 20.7169 75.103 21.0616 75.103 21.4659ZM85.6887 26V18.3636H87.1752V26H85.6887ZM86.4395 17.1854C86.1809 17.1854 85.9589 17.0992 85.7733 16.9268C85.591 16.7512 85.4998 16.5424 85.4998 16.3004C85.4998 16.0552 85.591 15.8464 85.7733 15.674C85.9589 15.4983 86.1809 15.4105 86.4395 15.4105C86.698 15.4105 86.9184 15.4983 87.1007 15.674C87.2863 15.8464 87.3791 16.0552 87.3791 16.3004C87.3791 16.5424 87.2863 16.7512 87.1007 16.9268C86.9184 17.0992 86.698 17.1854 86.4395 17.1854ZM90.6616 21.4659V26H89.1751V18.3636H90.6019V19.6065H90.6964C90.872 19.2022 91.1471 18.8774 91.5217 18.6321C91.8995 18.3868 92.3751 18.2642 92.9485 18.2642C93.4689 18.2642 93.9246 18.3736 94.3157 18.5923C94.7068 18.8078 95.0101 19.1293 95.2255 19.5568C95.4409 19.9844 95.5487 20.513 95.5487 21.1428V26H94.0621V21.3217C94.0621 20.7682 93.918 20.3357 93.6296 20.0241C93.3413 19.7093 92.9452 19.5518 92.4414 19.5518C92.0967 19.5518 91.7901 19.6264 91.5217 19.7756C91.2565 19.9247 91.046 20.1435 90.8903 20.4318C90.7378 20.7169 90.6616 21.0616 90.6616 21.4659ZM104.975 26H101.365V15.8182H105.005C106.029 15.8182 106.91 16.022 107.65 16.4297C108.389 16.834 108.957 17.4157 109.355 18.1747C109.756 18.9337 109.956 19.8419 109.956 20.8991C109.956 21.9598 109.756 22.8712 109.355 23.6335C108.957 24.3958 108.385 24.9808 107.64 25.3885C106.897 25.7962 106.009 26 104.975 26ZM103.518 24.1555H104.885C105.522 24.1555 106.057 24.0429 106.491 23.8175C106.929 23.5888 107.257 23.2358 107.475 22.7585C107.698 22.2779 107.809 21.6581 107.809 20.8991C107.809 20.1468 107.698 19.532 107.475 19.0547C107.257 18.5774 106.93 18.2261 106.496 18.0007C106.062 17.7753 105.527 17.6626 104.89 17.6626H103.518V24.1555ZM114.991 26.1491C114.206 26.1491 113.53 25.9901 112.963 25.6719C112.399 25.3504 111.965 24.8963 111.66 24.3097C111.355 23.7197 111.203 23.022 111.203 22.2166C111.203 21.4311 111.355 20.7417 111.66 20.1484C111.965 19.5552 112.394 19.0928 112.948 18.7614C113.505 18.4299 114.158 18.2642 114.907 18.2642C115.411 18.2642 115.88 18.3454 116.314 18.5078C116.751 18.6669 117.132 18.9072 117.457 19.2287C117.785 19.5502 118.041 19.9545 118.223 20.4418C118.405 20.9257 118.496 21.4924 118.496 22.142V22.7237H112.048V21.4112H116.503C116.503 21.1063 116.436 20.8362 116.304 20.6009C116.171 20.3655 115.987 20.1816 115.752 20.049C115.52 19.9131 115.25 19.8452 114.942 19.8452C114.62 19.8452 114.335 19.9197 114.086 20.0689C113.841 20.2147 113.649 20.4119 113.51 20.6605C113.371 20.9058 113.299 21.1792 113.296 21.4808V22.7287C113.296 23.1065 113.366 23.433 113.505 23.7081C113.647 23.9832 113.848 24.1953 114.106 24.3445C114.365 24.4936 114.671 24.5682 115.026 24.5682C115.261 24.5682 115.477 24.535 115.672 24.4688C115.868 24.4025 116.035 24.303 116.175 24.1705C116.314 24.0379 116.42 23.8755 116.493 23.6832L118.452 23.8125C118.352 24.2831 118.148 24.6941 117.84 25.0455C117.535 25.3935 117.141 25.6652 116.657 25.8608C116.176 26.053 115.621 26.1491 114.991 26.1491ZM126.793 18.3636L124.123 26H121.737L119.067 18.3636H121.304L122.89 23.8274H122.969L124.55 18.3636H126.793ZM127.916 26V15.8182H131.933C132.705 15.8182 133.363 15.9657 133.907 16.2607C134.451 16.5523 134.865 16.9583 135.15 17.4787C135.438 17.9957 135.582 18.5923 135.582 19.2685C135.582 19.9446 135.437 20.5412 135.145 21.0582C134.853 21.5753 134.431 21.978 133.877 22.2663C133.327 22.5547 132.661 22.6989 131.879 22.6989H129.318V20.9737H131.531C131.945 20.9737 132.286 20.9025 132.555 20.7599C132.826 20.6141 133.029 20.4136 133.161 20.1584C133.297 19.8999 133.365 19.6032 133.365 19.2685C133.365 18.9304 133.297 18.6354 133.161 18.3835C133.029 18.1283 132.826 17.9311 132.555 17.7919C132.283 17.6494 131.938 17.5781 131.521 17.5781H130.069V26H127.916ZM140.268 26.1491C139.496 26.1491 138.828 25.9851 138.265 25.657C137.704 25.3255 137.272 24.8648 136.967 24.2749C136.662 23.6816 136.51 22.9938 136.51 22.2116C136.51 21.4228 136.662 20.7334 136.967 20.1435C137.272 19.5502 137.704 19.0895 138.265 18.7614C138.828 18.4299 139.496 18.2642 140.268 18.2642C141.04 18.2642 141.707 18.4299 142.267 18.7614C142.83 19.0895 143.264 19.5502 143.569 20.1435C143.874 20.7334 144.027 21.4228 144.027 22.2116C144.027 22.9938 143.874 23.6816 143.569 24.2749C143.264 24.8648 142.83 25.3255 142.267 25.657C141.707 25.9851 141.04 26.1491 140.268 26.1491ZM140.278 24.5085C140.629 24.5085 140.923 24.4091 141.158 24.2102C141.393 24.008 141.571 23.733 141.69 23.3849C141.813 23.0369 141.874 22.6409 141.874 22.1967C141.874 21.7526 141.813 21.3565 141.69 21.0085C141.571 20.6605 141.393 20.3854 141.158 20.1832C140.923 19.9811 140.629 19.88 140.278 19.88C139.923 19.88 139.625 19.9811 139.383 20.1832C139.145 20.3854 138.964 20.6605 138.841 21.0085C138.722 21.3565 138.662 21.7526 138.662 22.1967C138.662 22.6409 138.722 23.0369 138.841 23.3849C138.964 23.733 139.145 24.008 139.383 24.2102C139.625 24.4091 139.923 24.5085 140.278 24.5085ZM148.218 26.1243C147.638 26.1243 147.112 25.9751 146.642 25.6768C146.174 25.3752 145.803 24.9328 145.528 24.3494C145.256 23.7628 145.12 23.0436 145.12 22.1918C145.12 21.3168 145.261 20.5893 145.543 20.0092C145.825 19.4259 146.199 18.9901 146.667 18.7017C147.137 18.41 147.653 18.2642 148.213 18.2642C148.64 18.2642 148.997 18.3371 149.282 18.483C149.57 18.6255 149.802 18.8045 149.978 19.0199C150.157 19.232 150.292 19.4408 150.385 19.6463H150.45V15.8182H152.563V26H150.475V24.777H150.385C150.286 24.9891 150.145 25.1996 149.963 25.4084C149.784 25.6139 149.55 25.7846 149.262 25.9205C148.977 26.0563 148.629 26.1243 148.218 26.1243ZM148.889 24.4389C149.23 24.4389 149.519 24.3461 149.754 24.1605C149.993 23.9716 150.175 23.7081 150.301 23.37C150.43 23.032 150.495 22.6359 150.495 22.1818C150.495 21.7277 150.432 21.3333 150.306 20.9986C150.18 20.6638 149.998 20.4053 149.759 20.223C149.52 20.0407 149.23 19.9496 148.889 19.9496C148.541 19.9496 148.248 20.044 148.009 20.233C147.77 20.4219 147.59 20.6837 147.467 21.0185C147.344 21.3532 147.283 21.741 147.283 22.1818C147.283 22.6259 147.344 23.0187 147.467 23.3601C147.593 23.6982 147.774 23.9633 148.009 24.1555C148.248 24.3445 148.541 24.4389 148.889 24.4389Z" fill="white"/>
</g>
<defs>
<clipPath id="clip0_104_201">
<rect width="165" height="41" fill="white"/>
</clipPath>
</defs>
</svg>
